<?xml version="1.0" encoding="utf-8"?>
<!-- Generator: Adobe Illustrator 17.0.0, SVG Export Plug-In . SVG Version: 6.00 Build 0)  -->
<!DOCTYPE svg PUBLIC "-//W3C//DTD SVG 1.1//EN" "http://www.w3.org/Graphics/SVG/1.1/DTD/svg11.dtd">
<svg version="1.1" id="Layer_1" xmlns="http://www.w3.org/2000/svg" xmlns:xlink="http://www.w3.org/1999/xlink" x="0px" y="0px"
	 width="90px" height="24px" viewBox="0 0 90 24" enable-background="new 0 0 90 24" xml:space="preserve">
<path fill="none" stroke="#231F20" stroke-miterlimit="10" d="M28.439,3.22c-0.771-0.325-1.579-0.113-2.25,0.416
	c0.798,0.041,1.589-0.068,2.337-0.33c-0.588,0.307-1.093,0.742-1.626,1.112c0.385-0.155,0.87-0.226,1.26-0.364
	c-0.518,0.359-0.699,0.85-1.079,1.254c0.398-0.056,0.816,0.026,1.289-0.157c-0.422,0.115-0.684,0.444-0.933,0.588
	c0.218-0.043,0.399,0.011,0.542,0.162c-0.067,0.12-0.996,1.427-0.637,1.001c-0.639,0.029-1.344,0.387-1.844,0.911
	c0.545-0.018,1.014,0.123,1.624-0.049c-0.032,0.214-0.354,0.299-0.515,0.389c0.289-0.107,0.679-0.165,0.983-0.269
	c-0.342-0.002-0.447,0.043-0.984,0.261c-0.04-0.019,0.507,0.202,0.502,0.194c-0.734,0.521-1.44,1.181-2.063,1.764
	c0.678,0.196,1.181,0.178,1.734-0.333c0.031,0.167,0.032,0.544,0.006,0.703c0.396-0.079,0.673-0.143,1.029-0.109
	c-0.322,0.199-0.69,0.689-1.164,0.875c0.369-0.008,0.791,0.087,1.153,0.074c-0.322,0.187-0.891,0.757-1.341,0.971
	c0.136-0.053,0.269-0.056,0.399-0.01c-0.555,0.238-1.064,0.594-1.623,0.82c0.339-0.117,0.725-0.169,1.073-0.276
	c-0.514,0.473-1.099,0.896-1.688,1.222c0.359-0.004,0.851,0.025,1.435-0.217c-0.666,0.283-1.3,0.635-1.881,1.047
	c0.363-0.08,0.733-0.008,1.087-0.033c-0.176,0.232-0.371,0.678-0.455,0.778c1.234,0.038,2.326-0.624,3.331-1.209
	c-0.704,0.038-1.389,0.223-2.013,0.539c0.279-0.17,0.609-0.362,0.9-0.522c-1.052,0.894,0.04,2.115-1.25,2.974
	c0.3-0.027,0.761,0.099,0.91,0.093c-0.511,0.294-0.913,0.791-1.5,1.04c0.771,0.076,1.565-0.109,2.253-0.47
	c-0.829,0.26-1.615,0.574-2.31,1.053c0.371-0.027,0.791,0.038,1.181,0.001c-0.55,0.504-1.308,0.873-1.955,1.184
	c0.44-0.036,0.898,0.132,1.269,0.144c-0.207,0.34-0.156,0.418-0.437,0.694c0.577-0.025,1.054-0.192,1.576-0.421"/>
<path fill="none" stroke="#231F20" stroke-miterlimit="10" d="M35.553,21.305c-0.78,0.014-1.53-0.188-2.223-0.556
	c1.133-0.386,2.345-0.61,3.558-0.628c-0.933-0.001-1.866,0.003-2.799,0.035c0.789-0.501,1.84-0.665,2.745-0.766
	c-0.701-0.123-1.399-0.273-2.084-0.448c0.319-0.172,0.665-0.241,1.038-0.207c-0.785,0.045-1.664,0.041-2.33-0.134
	c0.7-0.269,1.45-0.448,2.211-0.445c-0.528,0.035-1.043-0.028-1.566-0.036c0.74-0.359,1.647-0.644,2.477-0.923
	c-0.921-0.029-1.911-0.024-2.858-0.01c0.448-0.14,0.846-0.4,1.303-0.564c-0.434-0.006-1.034-0.207-1.417-0.227
	c0.376-0.125,1.163-0.636,1.623-0.708c-0.686-0.107-1.416-0.135-2.124-0.083c0.445,0.005,0.89,0,1.336,0
	c-0.419,0.021-0.827-0.019-1.243-0.03c0.397-0.12,1.14-0.599,1.533-0.727c-0.72-0.043-1.465-0.053-2.194-0.03
	c0.417-0.001,0.833,0,1.25,0c-0.376,0.019-0.759,0.007-1.136,0.01c0.33-0.054,0.65-0.158,0.979-0.217
	c-0.496,0-1.033-0.113-1.455-0.143c0.328-0.016,0.664-0.031,0.999-0.043c-0.793-0.001-1.587-0.001-2.38-0.001
	c0.394,0.005,0.791,0,1.185,0c-0.336,0.028-0.676-0.016-1.001-0.025c0.334-0.236,0.804-0.74,1.011-0.879
	c-0.202-0.198-0.349,0.008-0.531-0.043c0.366-0.226,0.699-0.642,1.069-0.819c-0.372,0.184-0.781,0.212-1.165,0.36
	c0.097-0.011,0.183-0.051,0.26-0.119c-0.867-0.067-1.756-0.047-2.637-0.035c0.206-0.122,0.468-0.349,0.658-0.472
	c-0.435-0.158-1.267-0.256-1.832-0.131"/>
<path fill="none" stroke="#231F20" stroke-miterlimit="10" d="M28.138,11.94c0.726,0.202,1.549,0.276,2.341,0.217
	c-0.583-0.324-1.564-0.4-2.091-0.648c0.626-0.317,0.875-0.69,1.728-0.552c-0.439,0-0.879-0.008-1.318,0
	c0.65-0.002,1.299,0,1.949-0.001c-0.199,0-0.398,0.005-0.597,0.015c0.32-0.022,0.628-0.092,0.925-0.211
	c0.039-0.188-0.059-0.259-0.296-0.211c0.056-0.044,0.28,0.049,0.379,0.019c-0.15,0.036-0.291,0.019-0.422-0.048
	c1.22-0.098,3.569-1.038,1.044-1.538C32,8.98,32.408,8.961,32.597,8.987c-0.473-0.009-1.31,0.117-1.649,0.157
	c0.192,0.054,1.292,0.069,1.194,0.067c-0.25,0.004-0.387-0.11-0.41-0.342c0.683-0.497,1.517-0.81,2.359-0.873
	c-0.449,0.051-0.357-0.022-0.797,0.012C33.993,8,34.298,7.761,34.582,7.659c-0.525-0.086-2.036-0.361-2.486-0.447
	c0.28-0.052,1.601-0.104,1.851-0.143c-0.078,0.014-0.659-0.149-0.645-0.039c0.38-0.056,0.557-0.082,0.856-0.201
	c-0.554-0.142-1.378-0.382-1.914-0.559c0.923-0.937,2.361-0.887,3.437-1.353c-0.512-0.594-1.56-0.538-2.391-0.486
	c1.027-0.203,2.291-0.363,3.127-0.747c-0.826-0.26-1.715-0.217-2.609-0.197c0.723,0,1.446,0,2.168,0c-0.26,0-0.531,0-0.78,0
	c0.28,0,0.559,0,0.839,0c-0.401,0-0.802,0-1.203,0"/>
<path fill="none" stroke="#231F20" stroke-miterlimit="10" d="M40.47,20.813c0.444-0.272,0.952-0.413,1.477-0.411
	c-0.238-0.1-0.401-0.164-0.752-0.178c0.112,0.009,0.431-0.008,0.621-0.015c-0.207-0.171-0.04-0.221-0.507-0.28
	c0.106,0,0.212,0,0.318-0.001c-0.182,0.018-0.72-0.031-0.823-0.038c0.204-0.069,0.402-0.15,0.594-0.243
	c-0.075-0.004-0.148-0.015-0.221-0.032c0.132-0.023,0.247-0.077,0.344-0.161c-0.502-0.033-1.004-0.019-1.508-0.002
	c0.392-0.255,0.898-0.341,1.365-0.385c-0.539-0.046-1.08-0.007-1.617-0.042c0.601-0.182,1.277-0.207,1.916-0.166
	c-0.429-0.281-1.027-0.226-1.546-0.222c0.094-0.033,0.494-0.242,0.679-0.288c-0.268-0.002-0.576-0.056-0.803-0.069
	c0.307,0.051,0.592-0.099,0.845-0.137c-0.325-0.439-1.046-0.292-1.574-0.278c0.771-0.002,1.648,0.13,2.358-0.12
	c-0.334-0.233-0.757-0.2-1.193-0.175c0.402,0.049,0.617-0.09,0.879-0.174c-0.347-0.132-0.749-0.178-1.13-0.137
	c0.314-0.018,0.646-0.191,0.919-0.28c-0.393-0.071-0.974-0.099-1.387-0.298c0.318,0.005,0.619-0.086,0.927-0.12
	c-0.437-0.11-0.917-0.086-1.373-0.069c0.587,0.035,1.352-0.035,1.826-0.275c-0.426,0.042-0.894,0.003-1.255-0.229
	c0.438,0.024,0.914,0.05,1.281-0.083c-0.369-0.32-0.979-0.215-1.488-0.197c0.263,0.017,0.582-0.106,0.837-0.142
	c-0.144-0.243-0.484-0.463-0.755-0.536c0.35-0.011,0.698-0.019,1.048-0.024c0.022-0.15,0.027-0.222-0.016-0.37
	c-0.354-0.048-0.609-0.163-0.917-0.292c0.468-0.033,0.936-0.019,1.404-0.015c-0.668-0.007-1.417,0.026-2.04-0.201
	c0.417-0.131,0.904-0.102,1.36-0.105c0.025-0.164,0.019-0.223-0.025-0.372c-0.497-0.006-1.06-0.027-1.5-0.186
	c0.501-0.025,1.03,0.114,1.257-0.243c-0.721-0.31-1.588-0.197-2.331-0.347c0.61-0.042,1.323,0.053,1.858-0.115
	c-0.169-0.064-0.404-0.217-0.63-0.28c0.771-0.047,1.553-0.003,2.322-0.03c0.032-0.085,0.038-0.172,0.017-0.261
	c-0.925-0.567-2.124-0.406-3.143-0.555c0.732-0.422,2.262-0.798,3.094-0.56c-0.08,0.084-0.163,0.197-0.272,0.289
	c0.233-0.109,0.559-0.111,0.8-0.189c-0.066,0.375-0.302,0.651-0.643,0.866c0.283-0.104,0.542-0.182,0.809-0.327
	c-0.355,0.139-0.678,0.343-0.947,0.599c0.46-0.227,0.861-0.582,1.302-0.826c-0.163,0.084-0.365,0.183-0.547,0.276
	c0.524-0.039,1.038-0.374,1.46-0.593c-0.192,0.19-0.328,0.41-0.568,0.603c0.415-0.106,0.804-0.298,1.126-0.564
	c-0.041,0.078-0.179,0.185-0.248,0.245c0.174-0.107,0.353-0.214,0.522-0.325c-0.145,0.11-0.301,0.239-0.443,0.344
	c0.459-0.127,0.768-0.5,1.227-0.651c-0.039,0.349-0.248,0.638-0.579,0.804c0.375-0.233,0.792-0.412,1.162-0.635
	c-0.105,0.115-0.25,0.34-0.416,0.482c0.367-0.223,0.726-0.471,1.088-0.695c-0.117,0.148-0.262,0.324-0.38,0.455
	c0.088-0.052,0.164-0.116,0.229-0.191c-0.085,0.03-0.149,0.081-0.192,0.153c0.437,0.043,0.835-0.145,1.137-0.432
	c-0.225,0.327-0.49,0.631-0.768,0.919c0.184-0.125,0.464-0.248,0.614-0.343c-0.32,0.257-0.629,0.527-0.925,0.807
	c0.223-0.181,0.439-0.372,0.655-0.561c-0.057,0.056-0.124,0.096-0.2,0.122c0.429-0.178,0.367,0.032,0.469,0.163"/>
<path fill="none" stroke="#231F20" stroke-miterlimit="10" d="M45.596,12.12c0.129-0.012,0.354-0.005,0.486,0.008
	c-0.587,0.339-1.09,0.795-1.725,0.975c0.391,0.154,0.835,0.133,1.235,0.013c-0.18,0.113-0.533,0.373-0.811,0.489
	c0.19-0.003,0.966-0.133,1.13-0.017c0.534,0.378-0.228,0.704-0.681,0.748c0.348,0.181,0.867,0.021,1.31-0.076
	c-0.483-0.084-0.985,0.186-1.452,0.397c0.48,0.03,0.995,0.043,1.444-0.049c-0.143,0.12-0.281,0.401-0.541,0.551
	c0.2-0.011,0.42,0.04,0.617,0.024c-0.237,0.097-0.489,0.296-0.72,0.386c0.404,0.002,0.808-0.022,1.2,0.02
	c0.074,0.59-0.621,0.572-0.99,0.947c0.45,0.062,0.913,0.017,1.343-0.111c-0.349,0.287-0.867,0.519-1.292,0.796
	c0.404,0.012,0.819-0.058,1.225-0.11c0.118,0.433-0.343,0.713-0.817,0.787c0.545,0.148,1.091,0.293,1.656,0.318
	c-0.696-0.022-1.309,0.314-1.994,0.316c0.097,0.012,1.279,0.122,1.374,0.291c0.256,0.454-0.28,0.693-0.749,0.67
	c0.089,0,0.282,0.011,0.361,0.001c-0.328,0-0.656,0-0.984,0"/>
<path fill="none" stroke="#231F20" stroke-miterlimit="10" d="M42.667,20.715c0.508-0.142,0.548-0.76,0.541-1.229
	c-0.235,0.224-0.352,0.553-0.427,0.85c0.636-0.017,1.181-0.404,1.656-0.783c0.006,0.36-0.076,0.625-0.291,0.853
	c-0.037-0.417,0.141-0.812,0.413-1.148c-0.036,0.183,0.041,0.343,0.05,0.483c0.124-0.13,0.272-0.228,0.442-0.296
	c-0.001,0.345-0.141,0.729-0.281,1.047c0.054-0.038,0.114-0.058,0.181-0.06c0.002,0.125-0.018,0.301,0.055,0.411
	c0.252-0.229,1.047-0.935,1.009-0.914"/>
<path fill="none" stroke="#231F20" stroke-miterlimit="10" d="M52.082,12.262c-0.182,0.089-0.382,0.116-0.552,0.037
	c0.175-0.735,2.658-2.328,2.152-0.928c0.202-0.279,0.448-0.528,0.729-0.739c-0.243,0.251-0.481,0.508-0.703,0.775
	c0.222-0.221,0.312-0.465,0.467-0.718"/>
<path fill="none" stroke="#231F20" stroke-miterlimit="10" d="M49.153,11.378c0.005,0.148,0.001,0.295-0.01,0.442
	c0.086-0.49,0.476-0.786,0.994-0.781c-0.005,0.137,0.039,0.252,0.132,0.347c0.095-0.125,0.211-0.229,0.348-0.31
	c-0.096,0.11-0.181,0.357-0.278,0.497c0.056-0.009,0.116-0.125,0.174-0.162c0.063,0.036,0.101,0.089,0.114,0.157
	c0.229-0.065,0.399-0.193,0.617-0.288"/>
<path fill="none" stroke="#231F20" stroke-miterlimit="10" d="M54.488,11.378c0.038-0.271-0.026-0.471,0.1-0.703
	c-0.128,0.296-0.327,0.624-0.523,0.86c0.178-0.266,0.363-0.342,0.609-0.521c-0.011,0.146,0.081,0.361,0.083,0.468
	c0.196-0.157,0.497-0.188,0.664-0.291c0.07,0.372,0.001,0.763-0.197,1.087c0.078-0.724,0.787-1.086,1.088-1.711
	c0.012,0.323,0,0.393-0.173,0.661c0.039-0.665,0.546-1.312,1.072-1.719c0,0.408-0.275,0.778-0.574,1.029
	c0.072-0.081,0.152-0.154,0.241-0.218c-0.037,0.166,0.007,0.459,0.025,0.635c0.16-0.046,0.487-0.15,0.513-0.167"/>
<path fill="none" stroke="#231F20" stroke-miterlimit="10" d="M49.467,12.852c-0.155,0.151-0.277,0.28-0.304,0.49
	c0.215-0.065,0.537,0.033,0.753-0.015c0.017,0.104,0.012,0.208-0.015,0.31c0.063-0.05,0.184-0.153,0.24-0.203
	c-0.354,0.09-0.659,0.302-0.863,0.592c0.212-0.184,0.506-0.335,0.726-0.531c-0.113,0.164-0.159,0.403-0.268,0.577
	c0.024,0.015,0.231,0.056,0.245,0.089c-0.112,0.444-0.269,0.891-0.381,1.343c0.076-0.109,0.169-0.205,0.278-0.288
	c0.096,0.256-0.066,0.652-0.298,0.905c0.188-0.169,0.432-0.286,0.624-0.451c-0.148,0.215-0.27,0.486-0.451,0.702
	c0.252-0.282,0.528-0.551,0.848-0.759c-0.357,0.561-0.827,1.029-1.245,1.545c0.209-0.2,0.602-0.212,0.812-0.282
	c0.082,0.449,0.024,0.922-0.04,1.359c0.127-0.048,0.255-0.082,0.377-0.147c-0.024,0.353-0.305,0.704-0.512,0.924
	c0.127-0.057,0.285-0.1,0.385-0.136c-0.111,0.138-0.15,0.319-0.287,0.469c0.269,0.079,0.659,0.151,0.981,0.18
	c-0.283,0.159-0.536,0.43-0.767,0.6"/>
<path fill="none" stroke="#231F20" stroke-miterlimit="10" d="M56.895,12.557c-0.194,0.223-0.473,0.455-0.7,0.616
	c0.042-0.127,0.104-0.245,0.187-0.353c-0.478,0.192-0.923,0.517-1.363,0.807c0.446-0.412,0.89-0.826,1.324-1.25
	c-0.295,0.48-0.683,0.913-1.139,1.264c0.142-0.433,0.463-0.83,0.865-1.012c-0.004,0.74-0.502,1.336-0.629,1.996
	c0.078-0.098,0.165-0.24,0.242-0.339c-0.445,0.164-0.761,0.511-1.035,0.87c0.178-0.165,0.6-0.338,0.798-0.482
	c-0.045,0.602-0.353,1.153-0.55,1.704c0.366-0.087,0.729-0.286,1.013-0.546c-0.056,0.139-0.041,0.459-0.194,0.683
	c0.139-0.062,0.334-0.096,0.493-0.198c-0.093,0.129-0.189,0.434-0.333,0.602c0.339-0.105,0.652-0.273,0.915-0.491
	c-0.137,0.549-0.787,1.479-1.151,1.928"/>
<path fill="none" stroke="#231F20" stroke-miterlimit="10" d="M52.292,20.125c-0.043-0.46-0.099-0.954,0.309-1.262
	c-0.065,0.176-0.15,0.355-0.213,0.536c-0.008-0.482,0.31-0.875,0.746-1.131c-0.053,0.12-0.099,0.296-0.176,0.432
	c0.421,0.002,0.883-0.251,1.309-0.338c-0.061,0.185-0.013,0.474-0.1,0.674c0.368-0.238,0.743-0.467,1.136-0.663
	c-0.093,0.136-0.144,0.45-0.212,0.568c0.111-0.034,0.348-0.033,0.418-0.05c-0.07,0.182-0.108,0.371-0.227,0.536
	c0.066-0.122,0.115-0.25,0.147-0.383"/>
<path fill="none" stroke="#231F20" stroke-miterlimit="10" d="M61.602,18.454c-1.051,0.521-1.892,0.749-3.003,1.059
	c0.585-0.557,1.566-0.538,2.093-1.164c-0.547,0.143-1.029,0.442-1.613,0.457c0.792-0.221,1.622-0.408,2.179-0.965
	c-0.467,0.148-0.915,0.366-1.412,0.41c0.442-0.273,0.929-0.496,1.433-0.66c-0.526,0.182-1.086,0.288-1.647,0.279
	c0.973-0.056,2.039-1.027,2.916-1.413c-0.631,0.44-1.549,0.604-2.308,0.725c0.204-0.279,0.591-0.576,0.734-0.864
	c-0.633,0.341-1.484,0.734-2.186,0.832c0.681-0.288,1.508-0.603,2.233-0.945c-0.58,0.079-1.199,0.436-1.775,0.319
	c0.527-0.284,1.047-0.594,1.6-0.841c-0.215,0.113-0.431,0.212-0.642,0.31c0.427-0.23,0.895-0.58,0.82-1.127
	c-0.367,0.138-0.722,0.308-1.058,0.506c0.568-0.437,1.33-0.842,1.663-1.458c-0.565,0.169-1.289,0.718-1.488,1.294
	c0.613-0.387,1.265-0.705,1.952-0.967c-0.666,0.356-1.409,0.716-1.92,1.258c0.403-0.49,0.943-0.965,1.002-1.568
	c-0.795-0.001-1.392-0.103-2.095-0.246c-0.302-0.061-0.109-0.49-0.506-0.435c-0.33,0.046-0.645,0.65-0.677,0.89
	c1.161-0.377,2.259-1.456,3.468-1.512c-0.271,0.319-0.566,0.651-0.797,0.976c0.583-0.475,1.231-1.011,1.501-1.702
	c-0.738-0.181-1.931,1.106-2.316,1.669c0.554-0.354,1.071-0.758,1.664-1.042c-0.459,0.367-1.147,1.164-1.699,1.009"/>
<path fill="none" stroke="#231F20" stroke-miterlimit="10" d="M61.812,2.433c-0.148-0.004-0.289-0.006-0.436,0.014
	c-0.042,0.335-0.259,0.692-0.593,0.893c0.383-0.201,0.761-0.411,1.149-0.604c-0.285,0.774-1.184,0.887-1.708,1.446
	c0.215-0.153,0.52-0.212,0.749-0.322c-0.12,0.32-0.312,0.622-0.554,0.883c0.166,0.342-0.051,0.635-0.447,0.822
	c0.445,0.099,0.92-0.039,1.234-0.368c-0.234,0.244-0.518,0.465-0.818,0.639c0.526-0.719,1.223-1.224,1.978-1.704
	c-0.181,0.658-0.712,1.126-1.307,1.467c0.165-0.059,0.482-0.073,0.66-0.125c-0.155,0.353-0.446,0.598-0.831,0.681
	c0.2-0.099,0.411-0.157,0.617-0.246c-0.36,0.24-0.648,0.589-0.937,0.873c-0.05,0.197-0.11,0.517-0.2,0.785
	c0.938-0.004,1.701-0.495,2.519-0.863c-0.211,0.375-0.577,0.64-0.977,0.842c-0.034-0.097,0.008-0.173,0.125-0.23
	c-0.157,0.323-0.469,0.602-0.739,0.816c0.199-0.079,0.412-0.143,0.603-0.228c-0.901,0.426-1.639,1.069-2.512,1.534
	c0.234-0.072,0.695-0.1,0.975-0.201c-0.091,0.108-0.19,0.302-0.278,0.394c0.231-0.098,0.794-0.19,0.905-0.222
	c-0.514,0.492-1.143,0.849-1.74,1.235c0.279-0.157,0.585-0.27,0.867-0.425c-0.24,0.216-0.433,0.474-0.692,0.675
	c0.548-0.003,1.024-0.233,1.508-0.46c-0.325,0.233-0.642,0.477-0.984,0.68c0.161-0.034,0.445,0.005,0.619-0.029
	c-0.581,0.52-0.876,1.275-1.54,1.717c0.333-0.199,0.668-0.397,1.003-0.592c-0.085,0.108-0.197,0.174-0.338,0.197
	c0.122-0.24,0.317-0.294,0.552-0.442"/>
<path fill="none" stroke="#231F20" stroke-miterlimit="10" d="M61.406,19.241c-0.052-0.797,0.573-1.399,1.063-1.977
	c-0.186,0.251-0.333,0.513-0.545,0.755c0.273-0.268,0.575-0.518,0.889-0.739c-0.293,0.383-0.647,0.707-0.988,1.051
	c-0.036-0.708,0.512-1.24,1.073-1.662c-0.267,0.654-0.764,1.221-1.207,1.782c0.343-0.816,1.284-1.766,2.14-2.021
	c0.013,0.526-0.291,0.999-0.632,1.393c0.205-0.452,0.564-0.841,0.962-1.154c-0.338,0.598-0.798,1.351-1.283,1.911
	c0.051-0.553,0.633-0.849,1.039-1.192c-0.175,0.342-0.403,0.658-0.629,0.978c0.161-0.167,0.545-0.386,0.743-0.576
	c-0.109,0.637-0.403,1.333-0.844,1.776c0.121-0.626,0.781-1.114,1.169-1.622c-0.063,0.253-0.133,0.357-0.312,0.595
	c0.501-0.687,1.301-1.554,2.12-1.9c-0.336,0.668-0.731,1.555-1.276,2.086c0.374-0.329,0.75-0.657,1.072-1.033
	c-0.165,0.418-0.387,0.861-0.758,1.083c0.25-0.704,0.85-1.571,1.633-1.79c-0.412,0.642-0.962,1.192-1.392,1.825
	c0.356-0.532,0.807-1.012,1.254-1.478c-0.29,0.409-0.576,0.924-0.831,1.301c-0.108-0.488-0.02-1.024,0.448-1.26
	c-0.24,0.712-0.548,1.581-1.059,2.159c0.706-0.622,1.421-1.226,2.151-1.823c0.156,0.521-0.371,1.187-0.805,1.581
	c0.255-0.431,0.511-0.855,0.858-1.227c0.024,0.369-0.162,0.684-0.506,0.87c0.083-0.453,0.285-0.917,0.621-1.26
	c-0.061,0.417-0.201,0.873-0.519,1.163c0.104-0.284,0.303-0.467,0.493-0.698c0.121,0.635-0.097,1.426-0.607,1.871
	c-0.111-1.037,1.252-2.425,2.004-3.129c0.179,0.481,0.145,1.025-0.098,1.487c-0.137-0.874,0.304-1.668,0.809-2.359
	c0.024,0.366,0.028,0.734,0.014,1.101c0-0.37,0-0.741,0-1.111"/>
<path fill="none" stroke="#231F20" stroke-miterlimit="10" d="M58.22,7.61c0.123,0.21,0.333,0.669,0.418,0.917"/>
<path fill="none" stroke="#231F20" stroke-miterlimit="10" d="M41.063,6.561c0.154-0.027,0.331-0.012,0.485,0.01
	c-0.026,0.145-0.094,0.273-0.206,0.383"/>
<path fill="none" stroke="#231F20" stroke-miterlimit="10" d="M42.457,5.251c0.427,0.126,0.816,0.132,1.255,0"/>
<path fill="none" stroke="#231F20" stroke-miterlimit="10" d="M35.204,10.624c-0.004,0.126-0.015,0.235,0.021,0.354
	c0.091-0.112,0.475-0.287,0.398-0.223"/>
<path fill="none" stroke="#231F20" stroke-miterlimit="10" d="M29.624,16.128c0.298-0.052,0.704,0.043,0.959,0.14
	c0.031,0.209,0.048,0.435,0.018,0.646"/>
<path fill="none" stroke="#231F20" stroke-miterlimit="10" d="M29.345,6.954c0.078,0.336,0.347,0.076,0.558-0.131"/>
<path fill="none" stroke="#231F20" stroke-miterlimit="10" d="M21.952,5.906c-0.291,0.186-0.505,0.477-0.558,0.786"/>
<path fill="none" stroke="#231F20" stroke-miterlimit="10" d="M24.045,10.231c-0.008,0.236-0.007,0.495,0.028,0.713
	c0.021-0.178,0.314-0.918,0.251-0.713"/>
<path fill="none" stroke="#231F20" stroke-miterlimit="10" d="M22.51,17.57c-0.218,0.075-0.609,0.051-0.83,0.089
	c0.015-0.17,0.061-0.325,0.132-0.482"/>
<path fill="none" stroke="#231F20" stroke-miterlimit="10" d="M21.813,14.293c-0.291,0.186-0.773,0.379-1.071,0.599
	c0.223-0.335,0.548-0.567,0.931-0.73"/>
<path fill="none" stroke="#231F20" stroke-miterlimit="10" d="M30.043,19.929c-0.069,0.216-0.007,0.515-0.056,0.747
	c0.109-0.04,0.22-0.071,0.335-0.091"/>
<path fill="none" stroke="#231F20" stroke-miterlimit="10" d="M44.271,8.396c0.381-0.096,0.709-0.338,0.837-0.655"/>
<path fill="none" stroke="#231F20" stroke-miterlimit="10" d="M46.782,4.596c0.192-0.181,0.562-0.279,0.787-0.38
	c0.09,0.105,0.2,0.188,0.329,0.249"/>
<path fill="none" stroke="#231F20" stroke-miterlimit="10" d="M52.082,6.954c0.063,0.217,0.108,0.424,0.139,0.655"/>
<path fill="none" stroke="#231F20" stroke-miterlimit="10" d="M54.872,3.678c-0.031-0.428,0.129-0.852,0.279-0.917"/>
<path fill="none" stroke="#231F20" stroke-miterlimit="10" d="M64.218,5.12c-0.004-0.333,0.014-0.746,0.279-0.524"/>
<path fill="none" stroke="#231F20" stroke-miterlimit="10" d="M63.939,10.886c0.178,0.057,0.331,0.149,0.418,0.262"/>
<path fill="none" stroke="#231F20" stroke-miterlimit="10" d="M35.762,22.812c0.517-0.223,0.991-0.399,1.534-0.393"/>
<path fill="none" stroke="#231F20" stroke-miterlimit="10" d="M47.758,23.074c0.046,0,0.093,0,0.139,0"/>
<path fill="none" stroke="#231F20" stroke-miterlimit="10" d="M46.329,19.502c0.504-0.038,0.894,0.091,1.255,0.393"/>
<path fill="none" stroke="#231F20" stroke-miterlimit="10" d="M57.383,21.632c0.748-0.405,1.438,0.517,1.803,1.119
	c-0.248-0.378-0.337-0.817-0.254-1.256c0.17,0.234,0.553,0.445,0.724,0.762c0.222-0.706-0.103-1.495-0.738-1.936"/>
<path fill="none" stroke="#231F20" stroke-miterlimit="10" d="M65.334,21.37c0,0.044,0,0.087,0,0.131"/>
<path fill="none" stroke="#231F20" stroke-miterlimit="10" d="M68.403,20.977c0.27,0.072,0.576-0.013,0.857,0.06
	c-0.257-0.591-0.42-1.413,0.38-1.273c-0.586,0.019-1.23,0.051-1.67,0.27c0.329,0.04,0.657,0.037,0.99,0.026"/>
<path fill="none" stroke="#231F20" stroke-miterlimit="10" d="M69.519,12.197c0.511,0.021,0.866-0.085,1.111-0.498
	c-0.423,0.052-0.939-0.067-1.371-0.043c0.092-0.157,0.12-0.585,0.239-0.756c-0.853-0.103-1.628,0.432-2.391,0.386
	c0.314-0.118,0.665-0.159,1.057-0.166c-0.364,0.542-1.024,0.958-1.265,1.601c0.77,0.055,1.542-0.07,2.273-0.304
	c-0.022,0.471-0.314,0.89-0.765,1.148c0.167-0.174,0.381-0.289,0.554-0.451"/>
<path fill="none" stroke="#231F20" stroke-miterlimit="10" d="M66.031,6.692c0.903-0.192,1.205-1.585,1.254-2.337
	c-0.089,0.377-0.002,0.87,0.045,1.235c0.346-0.258,0.702-0.632,0.877-0.908c0.02,0.73-0.221,1.389-0.492,2.004
	c0.189-0.117,0.407-0.271,0.559-0.385c-1.082,0.666-2.577,1.461-3.756,1.578c0.387-0.821,1.036-1.609,1.932-1.972"/>
<path fill="none" stroke="#231F20" stroke-miterlimit="10" d="M51.509,18.758c-0.397,0.135-0.756,0.362-1.042,0.652
	c1.092-0.086,3.056-0.273,3.79-1.086c-0.339,0.649-0.81,1.233-1.353,1.745"/>
<path fill="none" stroke="#231F20" stroke-miterlimit="10" d="M30.322,4.071c0.092,0.098,0.218,0.052,0.121,0.286
	c0.117-0.049,0.326-0.083,0.463-0.21c0.398,0.207,0.893,0.268,1.369,0.186"/>
<g>
	<path fill="none" d="M36.459-0.253"/>
</g>
<g>
	<path fill="#231F20" d="M34.228-1.171c0,0,0.127,0.129,0.196,0.27c0.077,0.143,0.101,0.3,0.052,0.424
		c-0.026,0.105-0.128,0.18-0.273,0.232c-0.136,0.052-0.317,0.08-0.317,0.08s-0.148-0.101-0.234-0.242
		c-0.094-0.142-0.13-0.324-0.089-0.477c0.055-0.121,0.184-0.21,0.339-0.25C34.049-1.178,34.228-1.171,34.228-1.171z"/>
</g>
<path fill="none" stroke="#231F20" stroke-miterlimit="10" d="M49.711,2.892c0.279,0.555,0.653,1.223,0.976,1.704"/>
<g>
	<path fill="#231F20" d="M54.035,7.741c0.007,0.12,0.004,0.235-0.005,0.346c-0.054,0.108-0.14,0.245-0.256,0.356l-0.502,0.484
		l0.113-0.846c0.04-0.297,0.132-0.586,0.238-0.87c0.14-0.259,0.301-0.508,0.486-0.737c0.397-0.423,0.839-0.775,1.46-0.961
		c-0.048,0.324-0.158,0.594-0.28,0.854c-0.119,0.254-0.251,0.489-0.412,0.702c-0.128,0.225-0.287,0.426-0.454,0.625
		c-0.144,0.208-0.303,0.41-0.513,0.605l-0.388-0.362c0.043-0.012,0.12,0.005,0.222-0.014C53.833,7.857,53.929,7.796,54.035,7.741z"
		/>
</g>
<path fill="none" stroke="#231F20" stroke-miterlimit="10" d="M48.037,8.658c0-0.786,0-1.573,0-2.359"/>
</svg>
