<?xml version="1.0" encoding="utf-8"?>
<!-- Generator: Adobe Illustrator 17.0.0, SVG Export Plug-In . SVG Version: 6.00 Build 0)  -->
<!DOCTYPE svg PUBLIC "-//W3C//DTD SVG 1.1//EN" "http://www.w3.org/Graphics/SVG/1.1/DTD/svg11.dtd">
<svg version="1.1" id="Layer_1" xmlns="http://www.w3.org/2000/svg" xmlns:xlink="http://www.w3.org/1999/xlink" x="0px" y="0px"
	 width="150px" height="60px" viewBox="0 0 150 60" enable-background="new 0 0 150 60" xml:space="preserve">
<path fill="none" stroke="#231F20" stroke-miterlimit="10" d="M32.353,11.714c-1.661-0.7-3.402-0.243-4.847,0.897
	c1.719,0.087,3.423-0.147,5.034-0.711c-1.267,0.662-2.355,1.598-3.502,2.395c0.829-0.334,1.874-0.487,2.713-0.784
	c-1.115,0.773-1.505,1.83-2.325,2.702c0.858-0.121,1.758,0.057,2.777-0.338c-0.909,0.247-1.474,0.956-2.011,1.267
	c0.47-0.093,0.859,0.023,1.168,0.349c-0.143,0.258-2.145,3.074-1.371,2.157c-1.377,0.063-2.895,0.834-3.972,1.963
	c1.175-0.04,2.185,0.265,3.499-0.106c-0.069,0.462-0.763,0.643-1.109,0.838c0.624-0.231,1.462-0.356,2.118-0.58
	c-0.736-0.005-0.964,0.093-2.12,0.561c-0.086-0.042,1.092,0.434,1.082,0.419c-1.58,1.121-3.101,2.544-4.443,3.799
	c1.46,0.421,2.544,0.384,3.736-0.717c0.066,0.359,0.069,1.171,0.013,1.515c0.852-0.17,1.449-0.308,2.217-0.234
	c-0.693,0.429-1.487,1.485-2.508,1.884c0.795-0.018,1.703,0.188,2.483,0.16c-0.694,0.403-1.919,1.63-2.89,2.092
	c0.293-0.114,0.58-0.122,0.86-0.023c-1.196,0.513-2.293,1.279-3.497,1.766c0.731-0.253,1.562-0.364,2.311-0.595
	c-1.108,1.018-2.367,1.929-3.637,2.633c0.773-0.009,1.834,0.053,3.091-0.467c-1.434,0.609-2.799,1.367-4.052,2.255
	c0.782-0.173,1.58-0.017,2.341-0.072c-0.38,0.5-0.799,1.46-0.979,1.676c2.658,0.081,5.01-1.345,7.176-2.603
	c-1.515,0.081-2.993,0.479-4.336,1.162c0.601-0.367,1.312-0.779,1.939-1.124c-2.267,1.926,0.085,4.556-2.692,6.406
	c0.645-0.059,1.64,0.213,1.961,0.2c-1.102,0.634-1.967,1.704-3.232,2.239c1.66,0.163,3.37-0.234,4.854-1.013
	c-1.786,0.561-3.478,1.237-4.976,2.268c0.8-0.059,1.704,0.083,2.544,0.002c-1.186,1.086-2.817,1.881-4.211,2.551
	c0.948-0.078,1.934,0.285,2.734,0.311c-0.445,0.732-0.336,0.9-0.942,1.494c1.243-0.054,2.27-0.415,3.394-0.906"/>
<path fill="none" stroke="#231F20" stroke-miterlimit="10" d="M47.677,50.672c-1.679,0.029-3.296-0.404-4.79-1.198
	c2.44-0.831,5.052-1.313,7.665-1.352c-2.01-0.002-4.021,0.005-6.029,0.075c1.7-1.078,3.964-1.432,5.914-1.651
	c-1.51-0.265-3.014-0.588-4.488-0.965c0.688-0.371,1.433-0.519,2.237-0.445c-1.691,0.096-3.585,0.088-5.019-0.289
	c1.508-0.58,3.123-0.965,4.763-0.959c-1.137,0.075-2.246-0.06-3.373-0.078c1.595-0.773,3.549-1.387,5.337-1.989
	c-1.985-0.063-4.116-0.051-6.156-0.021c0.964-0.302,1.823-0.861,2.807-1.215c-0.934-0.014-2.227-0.445-3.052-0.488
	c0.81-0.269,2.504-1.37,3.497-1.525c-1.477-0.231-3.05-0.291-4.576-0.179c0.959,0.01,1.918,0,2.877,0
	c-0.902,0.046-1.781-0.042-2.678-0.064c0.855-0.26,2.456-1.291,3.301-1.566c-1.551-0.093-3.157-0.115-4.727-0.064
	c0.897-0.002,1.794,0,2.692,0c-0.81,0.04-1.635,0.015-2.447,0.022c0.711-0.116,1.401-0.341,2.109-0.467
	c-1.068-0.001-2.225-0.244-3.135-0.307c0.707-0.034,1.431-0.067,2.151-0.093c-1.709-0.002-3.418-0.002-5.127-0.001
	c0.848,0.011,1.704,0,2.553,0c-0.723,0.061-1.455-0.034-2.156-0.053c0.72-0.507,1.733-1.594,2.177-1.894
	c-0.434-0.427-0.751,0.018-1.144-0.092c0.787-0.486,1.506-1.382,2.302-1.764c-0.802,0.397-1.682,0.457-2.51,0.776
	c0.209-0.025,0.395-0.11,0.56-0.257c-1.868-0.145-3.784-0.101-5.681-0.075c0.443-0.262,1.007-0.752,1.416-1.017
	c-0.936-0.341-2.73-0.552-3.947-0.283"/>
<path fill="none" stroke="#231F20" stroke-miterlimit="10" d="M31.705,30.499c1.564,0.434,3.337,0.596,5.043,0.467
	c-1.256-0.698-3.369-0.863-4.504-1.396c1.349-0.683,1.885-1.486,3.721-1.189c-0.946,0-1.893-0.016-2.838,0
	c1.399-0.003,2.798-0.001,4.198-0.001c-0.429-0.001-0.857,0.01-1.286,0.033c0.689-0.047,1.353-0.199,1.992-0.455
	c0.085-0.406-0.128-0.557-0.638-0.455c0.121-0.095,0.604,0.105,0.816,0.041c-0.324,0.077-0.627,0.042-0.909-0.104
	c2.627-0.211,7.688-2.237,2.25-3.314c0.474-0.004,1.353-0.045,1.762,0.011c-1.019-0.019-2.822,0.252-3.551,0.339
	c0.415,0.115,2.783,0.148,2.573,0.143c-0.539,0.008-0.834-0.237-0.884-0.736c1.471-1.07,3.267-1.745,5.081-1.882
	c-0.966,0.109-0.77-0.048-1.718,0.026c1.505-0.017,2.163-0.532,2.774-0.751c-1.132-0.184-4.386-0.778-5.355-0.963
	c0.604-0.112,3.449-0.223,3.987-0.307c-0.169,0.03-1.42-0.322-1.389-0.084c0.819-0.121,1.2-0.178,1.845-0.433
	c-1.193-0.305-2.968-0.823-4.123-1.205c1.988-2.019,5.086-1.911,7.404-2.914c-1.103-1.28-3.36-1.159-5.15-1.047
	c2.212-0.437,4.936-0.782,6.736-1.609c-1.78-0.559-3.694-0.468-5.62-0.423c1.557,0,3.114,0,4.671,0c-0.559,0-1.144,0-1.68,0
	c0.602,0,1.205,0,1.807,0c-0.864,0-1.728,0-2.591,0"/>
<path fill="none" stroke="#231F20" stroke-miterlimit="10" d="M58.269,49.613c0.956-0.586,2.051-0.889,3.182-0.886
	c-0.513-0.216-0.863-0.352-1.62-0.384c0.242,0.019,0.929-0.018,1.337-0.032c-0.445-0.369-0.087-0.476-1.092-0.603
	c0.228,0.001,0.456,0,0.684-0.002c-0.391,0.039-1.55-0.068-1.772-0.082c0.438-0.149,0.865-0.324,1.28-0.523
	c-0.161-0.008-0.32-0.031-0.476-0.069c0.285-0.05,0.532-0.166,0.741-0.348c-1.082-0.07-2.164-0.041-3.248-0.003
	c0.845-0.55,1.935-0.734,2.941-0.83c-1.161-0.099-2.327-0.016-3.484-0.092c1.295-0.392,2.75-0.445,4.127-0.359
	c-0.924-0.606-2.213-0.487-3.331-0.477c0.203-0.071,1.063-0.521,1.463-0.62c-0.577-0.004-1.24-0.12-1.729-0.15
	c0.66,0.109,1.275-0.213,1.821-0.294c-0.7-0.945-2.253-0.628-3.391-0.599c1.661-0.005,3.551,0.279,5.079-0.259
	c-0.719-0.502-1.63-0.43-2.57-0.378c0.866,0.105,1.33-0.194,1.893-0.375c-0.748-0.285-1.613-0.384-2.435-0.295
	c0.676-0.039,1.391-0.412,1.98-0.603c-0.846-0.152-2.099-0.213-2.989-0.643c0.685,0.01,1.332-0.184,1.997-0.258
	c-0.942-0.236-1.974-0.186-2.958-0.15c1.265,0.076,2.912-0.075,3.934-0.591c-0.918,0.09-1.925,0.006-2.703-0.493
	c0.943,0.051,1.968,0.107,2.759-0.179c-0.794-0.69-2.108-0.463-3.206-0.423c0.568,0.036,1.253-0.228,1.803-0.307
	c-0.311-0.524-1.042-0.998-1.627-1.155c0.753-0.023,1.505-0.04,2.257-0.051c0.047-0.324,0.057-0.478-0.035-0.797
	c-0.762-0.103-1.312-0.351-1.975-0.628c1.007-0.07,2.016-0.04,3.025-0.032c-1.439-0.015-3.052,0.056-4.394-0.433
	c0.899-0.282,1.948-0.219,2.93-0.227c0.055-0.353,0.041-0.481-0.053-0.801c-1.071-0.012-2.284-0.059-3.231-0.401
	c1.078-0.053,2.219,0.245,2.707-0.524c-1.554-0.668-3.422-0.424-5.02-0.747c1.313-0.091,2.851,0.115,4.002-0.249
	c-0.364-0.138-0.871-0.467-1.356-0.602c1.662-0.101,3.345-0.007,5.002-0.064c0.069-0.183,0.082-0.37,0.037-0.562
	c-1.993-1.222-4.575-0.874-6.771-1.195c1.576-0.908,4.872-1.72,6.664-1.205c-0.173,0.181-0.352,0.423-0.587,0.624
	c0.501-0.235,1.203-0.238,1.724-0.406c-0.142,0.807-0.651,1.402-1.385,1.866c0.609-0.225,1.167-0.391,1.744-0.704
	c-0.764,0.3-1.461,0.739-2.039,1.29c0.992-0.488,1.855-1.254,2.805-1.78c-0.352,0.18-0.786,0.394-1.178,0.593
	c1.129-0.085,2.235-0.806,3.145-1.277c-0.413,0.409-0.706,0.884-1.225,1.3c0.895-0.228,1.732-0.643,2.427-1.215
	c-0.087,0.168-0.385,0.398-0.533,0.527c0.376-0.23,0.76-0.46,1.125-0.7c-0.312,0.237-0.649,0.515-0.954,0.742
	c0.988-0.273,1.654-1.076,2.643-1.403c-0.084,0.752-0.534,1.375-1.247,1.732c0.808-0.501,1.706-0.887,2.503-1.368
	c-0.226,0.247-0.539,0.732-0.896,1.039c0.791-0.48,1.563-1.015,2.343-1.498c-0.253,0.319-0.564,0.697-0.818,0.979
	c0.189-0.112,0.353-0.249,0.492-0.411c-0.184,0.064-0.321,0.174-0.413,0.329c0.942,0.093,1.798-0.313,2.449-0.93
	c-0.484,0.704-1.057,1.36-1.654,1.98c0.396-0.269,1-0.535,1.323-0.739c-0.689,0.554-1.354,1.134-1.992,1.739
	c0.481-0.39,0.947-0.801,1.411-1.208c-0.123,0.12-0.267,0.207-0.431,0.262c0.925-0.383,0.79,0.069,1.01,0.352"/>
<path fill="none" stroke="#231F20" stroke-miterlimit="10" d="M69.312,30.887c0.278-0.026,0.763-0.011,1.046,0.016
	c-1.265,0.73-2.347,1.713-3.715,2.1c0.843,0.332,1.798,0.287,2.661,0.027c-0.388,0.244-1.148,0.804-1.746,1.053
	c0.41-0.007,2.081-0.287,2.435-0.036c1.149,0.815-0.491,1.517-1.466,1.611c0.749,0.39,1.868,0.046,2.821-0.165
	c-1.04-0.18-2.122,0.4-3.127,0.855c1.033,0.065,2.144,0.092,3.11-0.106c-0.307,0.258-0.604,0.863-1.166,1.186
	c0.43-0.024,0.905,0.086,1.33,0.052c-0.511,0.209-1.053,0.638-1.551,0.831c0.87,0.004,1.74-0.047,2.586,0.042
	c0.16,1.27-1.339,1.231-2.132,2.039c0.969,0.134,1.967,0.036,2.894-0.239c-0.753,0.617-1.868,1.118-2.783,1.715
	c0.871,0.026,1.764-0.125,2.64-0.236c0.254,0.933-0.739,1.535-1.759,1.696c1.175,0.318,2.35,0.631,3.567,0.685
	c-1.5-0.047-2.82,0.676-4.295,0.681c0.21,0.027,2.756,0.264,2.96,0.626c0.552,0.978-0.604,1.493-1.613,1.444
	c0.191,0,0.608,0.024,0.777,0.001c-0.707,0-1.413,0-2.12,0"/>
<path fill="none" stroke="#231F20" stroke-miterlimit="10" d="M63.002,49.402c1.094-0.306,1.181-1.637,1.165-2.647
	c-0.507,0.484-0.759,1.192-0.92,1.832c1.37-0.036,2.543-0.87,3.567-1.686c0.012,0.776-0.163,1.347-0.627,1.837
	c-0.08-0.898,0.303-1.75,0.889-2.473c-0.077,0.394,0.089,0.739,0.109,1.039c0.268-0.279,0.585-0.492,0.951-0.637
	c-0.002,0.744-0.303,1.57-0.604,2.256c0.116-0.082,0.246-0.125,0.391-0.13c0.005,0.27-0.038,0.649,0.118,0.885
	c0.543-0.494,2.255-2.015,2.173-1.968"/>
<path fill="none" stroke="#231F20" stroke-miterlimit="10" d="M83.284,31.193c-0.392,0.191-0.822,0.249-1.19,0.079
	c0.376-1.584,5.725-5.015,4.636-1.998c0.435-0.601,0.965-1.138,1.57-1.591c-0.523,0.54-1.035,1.093-1.514,1.669
	c0.479-0.477,0.671-1.002,1.005-1.547"/>
<path fill="none" stroke="#231F20" stroke-miterlimit="10" d="M76.974,29.288c0.01,0.318,0.003,0.636-0.02,0.953
	c0.185-1.056,1.025-1.694,2.141-1.682c-0.011,0.295,0.084,0.544,0.285,0.747c0.205-0.27,0.455-0.493,0.75-0.668
	c-0.206,0.238-0.39,0.77-0.598,1.07c0.12-0.02,0.249-0.269,0.375-0.349c0.136,0.078,0.218,0.191,0.245,0.339
	c0.493-0.14,0.86-0.415,1.329-0.621"/>
<path fill="none" stroke="#231F20" stroke-miterlimit="10" d="M88.467,29.288c0.081-0.584-0.056-1.015,0.215-1.514
	c-0.276,0.638-0.705,1.345-1.127,1.853c0.383-0.572,0.782-0.737,1.311-1.122c-0.023,0.314,0.174,0.778,0.178,1.008
	c0.422-0.339,1.07-0.405,1.43-0.626c0.151,0.802,0.001,1.644-0.424,2.342c0.167-1.559,1.695-2.338,2.344-3.686
	c0.026,0.696,0,0.847-0.372,1.424c0.085-1.433,1.176-2.827,2.31-3.704c0,0.879-0.593,1.677-1.236,2.216
	c0.155-0.175,0.328-0.331,0.52-0.469c-0.079,0.357,0.015,0.99,0.054,1.367c0.344-0.1,1.049-0.323,1.104-0.359"/>
<path fill="none" stroke="#231F20" stroke-miterlimit="10" d="M77.65,32.464c-0.334,0.324-0.597,0.604-0.655,1.056
	c0.464-0.14,1.157,0.072,1.622-0.033c0.036,0.225,0.025,0.447-0.033,0.668c0.135-0.108,0.395-0.33,0.518-0.438
	c-0.763,0.193-1.421,0.65-1.86,1.276c0.458-0.395,1.091-0.721,1.564-1.144c-0.244,0.352-0.343,0.867-0.578,1.243
	c0.052,0.032,0.497,0.121,0.527,0.191c-0.24,0.957-0.58,1.919-0.82,2.893c0.164-0.236,0.364-0.442,0.6-0.619
	c0.208,0.552-0.143,1.404-0.642,1.95c0.404-0.363,0.93-0.617,1.344-0.971c-0.319,0.463-0.583,1.046-0.971,1.512
	c0.543-0.606,1.136-1.187,1.826-1.636c-0.77,1.209-1.782,2.217-2.682,3.329c0.451-0.432,1.296-0.456,1.75-0.608
	c0.177,0.966,0.051,1.986-0.086,2.928c0.274-0.104,0.55-0.177,0.812-0.316c-0.051,0.76-0.657,1.517-1.104,1.991
	c0.273-0.124,0.615-0.215,0.829-0.293c-0.239,0.297-0.323,0.688-0.619,1.01c0.579,0.169,1.419,0.326,2.112,0.388
	c-0.61,0.342-1.155,0.926-1.651,1.292"/>
<path fill="none" stroke="#231F20" stroke-miterlimit="10" d="M93.65,31.828c-0.418,0.481-1.02,0.98-1.507,1.326
	c0.091-0.273,0.225-0.527,0.403-0.76c-1.029,0.414-1.988,1.114-2.936,1.738c0.961-0.888,1.918-1.78,2.853-2.692
	c-0.636,1.033-1.471,1.968-2.454,2.724c0.306-0.933,0.998-1.787,1.864-2.18c-0.008,1.593-1.081,2.879-1.356,4.299
	c0.167-0.211,0.355-0.518,0.522-0.73c-0.96,0.353-1.64,1.101-2.23,1.874c0.382-0.356,1.293-0.728,1.72-1.038
	c-0.098,1.298-0.761,2.483-1.185,3.67c0.787-0.188,1.57-0.616,2.182-1.176c-0.121,0.3-0.088,0.989-0.418,1.471
	c0.3-0.134,0.721-0.208,1.063-0.427c-0.199,0.278-0.407,0.935-0.717,1.297c0.73-0.225,1.404-0.588,1.971-1.057
	c-0.295,1.182-1.695,3.186-2.479,4.153"/>
<path fill="none" stroke="#231F20" stroke-miterlimit="10" d="M83.735,48.131c-0.094-0.991-0.212-2.055,0.666-2.718
	c-0.14,0.38-0.322,0.765-0.458,1.154c-0.018-1.038,0.668-1.885,1.607-2.436c-0.114,0.259-0.213,0.638-0.379,0.931
	c0.906,0.005,1.902-0.542,2.82-0.728c-0.131,0.397-0.027,1.02-0.216,1.453c0.793-0.512,1.6-1.006,2.448-1.429
	c-0.201,0.292-0.31,0.97-0.456,1.223c0.24-0.074,0.75-0.071,0.901-0.108c-0.152,0.392-0.234,0.799-0.488,1.154
	c0.142-0.263,0.248-0.538,0.316-0.825"/>
<path fill="none" stroke="#231F20" stroke-miterlimit="10" d="M103.792,44.532c-2.265,1.123-4.075,1.613-6.47,2.281
	c1.26-1.2,3.374-1.158,4.508-2.507c-1.178,0.307-2.216,0.951-3.475,0.984c1.706-0.476,3.494-0.878,4.695-2.078
	c-1.006,0.318-1.97,0.788-3.041,0.884c0.953-0.589,2.002-1.068,3.087-1.422c-1.133,0.391-2.34,0.621-3.547,0.601
	c2.097-0.12,4.392-2.212,6.282-3.044c-1.358,0.947-3.336,1.3-4.971,1.562c0.439-0.601,1.274-1.241,1.58-1.861
	c-1.364,0.735-3.196,1.58-4.709,1.792c1.466-0.62,3.248-1.299,4.809-2.036c-1.249,0.17-2.582,0.94-3.823,0.687
	c1.136-0.611,2.256-1.28,3.446-1.811c-0.464,0.244-0.928,0.457-1.383,0.667c0.919-0.496,1.927-1.25,1.767-2.428
	c-0.791,0.298-1.556,0.664-2.279,1.089c1.224-0.941,2.866-1.813,3.583-3.14c-1.218,0.364-2.778,1.547-3.205,2.788
	c1.32-0.833,2.725-1.518,4.206-2.083c-1.435,0.766-3.035,1.542-4.135,2.71c0.868-1.055,2.032-2.078,2.159-3.378
	c-1.712-0.002-2.998-0.223-4.512-0.529c-0.651-0.131-0.234-1.057-1.089-0.937c-0.712,0.099-1.389,1.4-1.459,1.918
	c2.501-0.812,4.866-3.137,7.471-3.257c-0.584,0.688-1.219,1.403-1.718,2.103c1.256-1.022,2.652-2.177,3.234-3.667
	c-1.59-0.391-4.159,2.383-4.99,3.594c1.193-0.763,2.308-1.633,3.585-2.244c-0.988,0.79-2.471,2.508-3.66,2.173"/>
<path fill="none" stroke="#231F20" stroke-miterlimit="10" d="M104.242,10.021c-0.318-0.009-0.623-0.014-0.939,0.03
	c-0.092,0.722-0.557,1.49-1.278,1.924c0.825-0.434,1.64-0.886,2.475-1.301c-0.614,1.668-2.552,1.91-3.678,3.114
	c0.464-0.33,1.12-0.457,1.614-0.693c-0.259,0.69-0.671,1.34-1.194,1.902c0.357,0.736-0.109,1.369-0.963,1.771
	c0.958,0.213,1.983-0.085,2.658-0.792c-0.505,0.526-1.115,1.001-1.763,1.376c1.134-1.548,2.634-2.636,4.261-3.67
	c-0.389,1.417-1.533,2.425-2.814,3.161c0.355-0.127,1.039-0.157,1.422-0.269c-0.335,0.76-0.961,1.287-1.79,1.467
	c0.43-0.213,0.885-0.339,1.329-0.529c-0.775,0.517-1.395,1.268-2.018,1.881c-0.107,0.423-0.237,1.114-0.431,1.692
	c2.02-0.008,3.665-1.067,5.426-1.858c-0.454,0.807-1.243,1.378-2.104,1.814c-0.073-0.208,0.017-0.373,0.27-0.495
	c-0.339,0.696-1.011,1.297-1.592,1.758c0.428-0.17,0.887-0.308,1.299-0.492c-1.94,0.918-3.531,2.302-5.411,3.304
	c0.503-0.154,1.498-0.216,2.1-0.434c-0.196,0.234-0.41,0.651-0.599,0.848c0.497-0.212,1.711-0.409,1.95-0.478
	c-1.107,1.059-2.461,1.828-3.749,2.659c0.601-0.338,1.261-0.583,1.867-0.914c-0.518,0.464-0.933,1.02-1.49,1.455
	c1.181-0.007,2.206-0.501,3.248-0.99c-0.7,0.501-1.383,1.027-2.121,1.464c0.348-0.074,0.958,0.011,1.333-0.062
	c-1.251,1.12-1.887,2.746-3.318,3.699c0.718-0.428,1.439-0.854,2.161-1.276c-0.182,0.232-0.425,0.374-0.729,0.425
	c0.262-0.517,0.683-0.634,1.188-0.952"/>
<path fill="none" stroke="#231F20" stroke-miterlimit="10" d="M103.369,46.226c-0.111-1.716,1.235-3.013,2.29-4.258
	c-0.4,0.541-0.717,1.106-1.175,1.627c0.589-0.577,1.238-1.117,1.914-1.592c-0.631,0.824-1.394,1.524-2.128,2.263
	c-0.078-1.525,1.103-2.672,2.312-3.581c-0.575,1.408-1.645,2.63-2.6,3.838c0.739-1.757,2.766-3.805,4.609-4.354
	c0.028,1.132-0.627,2.152-1.361,3.001c0.441-0.975,1.215-1.811,2.073-2.486c-0.729,1.289-1.718,2.91-2.764,4.117
	c0.109-1.19,1.363-1.829,2.238-2.567c-0.378,0.736-0.867,1.417-1.355,2.106c0.346-0.359,1.173-0.831,1.601-1.24
	c-0.236,1.372-0.868,2.871-1.817,3.826c0.26-1.348,1.683-2.399,2.519-3.493c-0.135,0.544-0.286,0.768-0.672,1.283
	c1.08-1.48,2.803-3.347,4.566-4.093c-0.723,1.439-1.576,3.349-2.748,4.493c0.805-0.709,1.617-1.415,2.309-2.225
	c-0.355,0.901-0.834,1.855-1.632,2.332c0.539-1.517,1.831-3.383,3.517-3.857c-0.888,1.383-2.072,2.568-2.998,3.93
	c0.766-1.146,1.738-2.181,2.702-3.183c-0.624,0.881-1.241,1.99-1.789,2.802c-0.232-1.051-0.043-2.206,0.964-2.713
	c-0.517,1.533-1.181,3.406-2.282,4.651c1.521-1.34,3.061-2.641,4.633-3.927c0.337,1.122-0.8,2.557-1.734,3.406
	c0.55-0.929,1.101-1.841,1.849-2.642c0.052,0.794-0.349,1.472-1.09,1.875c0.179-0.975,0.615-1.975,1.337-2.714
	c-0.131,0.898-0.432,1.881-1.119,2.505c0.225-0.612,0.652-1.007,1.062-1.504c0.26,1.368-0.209,3.072-1.308,4.03
	c-0.239-2.235,2.698-5.223,4.317-6.74c0.385,1.036,0.313,2.207-0.211,3.204c-0.296-1.882,0.654-3.593,1.744-5.083
	c0.052,0.788,0.06,1.582,0.03,2.372c0-0.798,0-1.596,0-2.394"/>
<path fill="none" stroke="#231F20" stroke-miterlimit="10" d="M96.505,21.171c0.266,0.452,0.716,1.442,0.901,1.976"/>
<path fill="none" stroke="#231F20" stroke-miterlimit="10" d="M59.546,18.913c0.333-0.058,0.713-0.025,1.044,0.022
	c-0.056,0.313-0.203,0.588-0.443,0.825"/>
<path fill="none" stroke="#231F20" stroke-miterlimit="10" d="M62.551,16.09c0.92,0.271,1.757,0.285,2.704,0"/>
<path fill="none" stroke="#231F20" stroke-miterlimit="10" d="M46.926,27.664c-0.009,0.272-0.033,0.506,0.044,0.764
	c0.196-0.241,1.024-0.619,0.857-0.481"/>
<path fill="none" stroke="#231F20" stroke-miterlimit="10" d="M34.907,39.521c0.642-0.113,1.517,0.093,2.065,0.302
	c0.067,0.45,0.104,0.938,0.038,1.391"/>
<path fill="none" stroke="#231F20" stroke-miterlimit="10" d="M34.306,19.76c0.169,0.723,0.747,0.163,1.202-0.282"/>
<path fill="none" stroke="#231F20" stroke-miterlimit="10" d="M18.38,17.502c-0.626,0.402-1.088,1.028-1.202,1.694"/>
<path fill="none" stroke="#231F20" stroke-miterlimit="10" d="M22.888,26.818c-0.018,0.508-0.016,1.066,0.06,1.535
	c0.045-0.383,0.677-1.978,0.541-1.535"/>
<path fill="none" stroke="#231F20" stroke-miterlimit="10" d="M19.582,42.626c-0.47,0.161-1.313,0.109-1.787,0.191
	c0.033-0.366,0.132-0.699,0.284-1.038"/>
<path fill="none" stroke="#231F20" stroke-miterlimit="10" d="M18.08,35.569c-0.627,0.401-1.664,0.817-2.307,1.291
	c0.48-0.722,1.181-1.221,2.006-1.573"/>
<path fill="none" stroke="#231F20" stroke-miterlimit="10" d="M35.808,47.708c-0.148,0.466-0.014,1.108-0.12,1.608
	c0.234-0.087,0.474-0.152,0.721-0.197"/>
<path fill="none" stroke="#231F20" stroke-miterlimit="10" d="M66.457,22.865c0.822-0.206,1.526-0.727,1.803-1.412"/>
<path fill="none" stroke="#231F20" stroke-miterlimit="10" d="M71.866,14.679c0.414-0.39,1.211-0.601,1.695-0.818
	c0.194,0.225,0.43,0.404,0.709,0.536"/>
<path fill="none" stroke="#231F20" stroke-miterlimit="10" d="M83.284,19.76c0.136,0.468,0.232,0.913,0.3,1.412"/>
<path fill="none" stroke="#231F20" stroke-miterlimit="10" d="M89.293,12.702c-0.066-0.921,0.278-1.836,0.601-1.976"/>
<path fill="none" stroke="#231F20" stroke-miterlimit="10" d="M109.426,15.808c-0.009-0.718,0.03-1.607,0.601-1.129"/>
<path fill="none" stroke="#231F20" stroke-miterlimit="10" d="M108.825,28.229c0.383,0.124,0.713,0.32,0.901,0.565"/>
<path fill="none" stroke="#231F20" stroke-miterlimit="10" d="M48.128,53.919c1.113-0.48,2.135-0.859,3.305-0.847"/>
<path fill="none" stroke="#231F20" stroke-miterlimit="10" d="M61.95,54.201c0.591-0.175,1.158-1.334,0.983-0.146
	c-0.031-0.353,0.19-1.433,0.219-0.418"/>
<path fill="none" stroke="#231F20" stroke-miterlimit="10" d="M73.969,54.483c0.1,0,0.2,0,0.3,0"/>
<path fill="none" stroke="#231F20" stroke-miterlimit="10" d="M70.89,46.789c1.085-0.082,1.926,0.197,2.704,0.847"/>
<path fill="none" stroke="#231F20" stroke-miterlimit="10" d="M94.702,51.378c1.611-0.872,3.098,1.113,3.883,2.41
	c-0.534-0.813-0.726-1.759-0.548-2.706c0.367,0.503,1.192,0.959,1.56,1.642c0.479-1.521-0.221-3.22-1.59-4.169"/>
<path fill="none" stroke="#231F20" stroke-miterlimit="10" d="M111.829,50.813c0,0.094,0,0.188,0,0.282"/>
<path fill="none" stroke="#231F20" stroke-miterlimit="10" d="M118.44,49.966c0.581,0.156,1.24-0.029,1.847,0.129
	c-0.553-1.273-0.904-3.044,0.819-2.743c-1.263,0.04-2.65,0.11-3.596,0.582c0.708,0.086,1.415,0.08,2.133,0.056"/>
<path fill="none" stroke="#231F20" stroke-miterlimit="10" d="M120.844,31.052c1.101,0.045,1.865-0.183,2.394-1.072
	c-0.912,0.112-2.023-0.144-2.954-0.093c0.198-0.337,0.258-1.26,0.516-1.629c-1.836-0.221-3.508,0.93-5.151,0.831
	c0.676-0.254,1.432-0.344,2.278-0.358c-0.785,1.167-2.206,2.064-2.725,3.449c1.659,0.119,3.321-0.15,4.897-0.655
	c-0.047,1.015-0.676,1.917-1.648,2.474c0.361-0.375,0.82-0.623,1.192-0.971"/>
<path fill="none" stroke="#231F20" stroke-miterlimit="10" d="M113.332,19.195c1.945-0.414,2.596-3.415,2.702-5.034
	c-0.193,0.812-0.003,1.874,0.098,2.66c0.745-0.556,1.512-1.361,1.888-1.956c0.042,1.572-0.475,2.992-1.061,4.316
	c0.407-0.253,0.877-0.584,1.204-0.83c-2.331,1.435-5.552,3.147-8.091,3.399c0.833-1.768,2.232-3.466,4.161-4.248"/>
<path fill="none" stroke="#231F20" stroke-miterlimit="10" d="M82.048,45.186c-0.854,0.292-1.629,0.779-2.245,1.404
	c2.351-0.185,6.583-0.587,8.165-2.34c-0.729,1.397-1.744,2.656-2.915,3.759"/>
<path fill="none" stroke="#231F20" stroke-miterlimit="10" d="M36.409,13.549c0.198,0.211,0.47,0.112,0.261,0.617
	c0.252-0.105,0.701-0.178,0.997-0.452c0.858,0.445,1.923,0.577,2.949,0.4"/>
<g>
	<path fill="#231F20" d="M44.823,2.257c-0.034,0.197-0.077,0.39-0.122,0.581L44.62,3.389l-0.138,1.125l-0.615-0.432
		c0.153-0.092,0.32-0.171,0.487-0.248c0.165-0.065,0.321-0.084,0.484-0.126c0.167-0.042,0.29-0.043,0.437-0.063
		c0.153-0.016,0.192-0.046,0.296-0.055l0.47-0.041l0.166,0.316c0.069,0.132,0.133,0.258,0.21,0.367
		c0.08,0.104,0.171,0.188,0.275,0.255c0.11,0.056,0.222,0.124,0.364,0.149c0.137,0.036,0.29,0.043,0.452,0.045
		c0.655-0.009,1.376-0.226,2.123-0.447c-0.517,0.586-1.182,1.065-2.03,1.25c-0.42,0.087-0.921,0.074-1.38-0.159
		c-0.223-0.123-0.418-0.289-0.576-0.479c-0.157-0.19-0.267-0.398-0.353-0.611l0.636,0.275c-0.178,0.04-0.415,0.093-0.548,0.097
		l-0.416,0.029c-0.116,0.016-0.252,0.013-0.355,0.041c-0.096,0.035-0.192,0.068-0.302,0.088L43.5,4.915l0.189-0.581
		c0.12-0.369,0.266-0.739,0.438-1.098c0.101-0.183,0.205-0.36,0.309-0.529C44.558,2.552,44.687,2.403,44.823,2.257z"/>
</g>
<path fill="none" stroke="#231F20" stroke-miterlimit="10" d="M78.176,11.009c0.601,1.195,1.406,2.634,2.103,3.67"/>
<g>
	<path fill="#231F20" d="M87.491,21.454l-0.05,0.336c-0.038,0.108-0.087,0.224-0.142,0.34c-0.069,0.1-0.145,0.199-0.224,0.3
		c-0.09,0.085-0.19,0.164-0.291,0.245l-0.679,0.546l0.289-0.91c0.185-0.581,0.421-1.154,0.672-1.721
		c0.148-0.268,0.332-0.514,0.497-0.773c0.164-0.259,0.354-0.501,0.532-0.75c0.799-0.917,1.656-1.753,2.701-2.413
		c-0.259,0.563-0.579,1.072-0.911,1.571c-0.323,0.498-0.658,0.979-1.022,1.436c-0.309,0.487-0.652,0.948-0.997,1.411
		c-0.289,0.491-0.592,0.978-0.947,1.456l-0.39-0.363c0.084-0.034,0.17-0.071,0.265-0.101l0.251-0.151
		C87.194,21.807,87.353,21.635,87.491,21.454z"/>
</g>
<path fill="none" stroke="#231F20" stroke-miterlimit="10" d="M74.57,23.43c0-1.694,0-3.388,0-5.081"/>
<path fill="none" stroke="#231F20" stroke-miterlimit="10" d="M83.284,59c1.002,0,2.003,0,3.005,0"/>
</svg>
